<svg xmlns="http://www.w3.org/2000/svg" version="1.1" xmlns:xlink="http://www.w3.org/1999/xlink" xmlns:svgjs="http://svgjs.dev/svgjs" width="1000" height="623" viewBox="0 0 1000 623"><g transform="matrix(1,0,0,1,-0.6060606060606233,0.2522267206477409)"><svg viewBox="0 0 396 247" data-background-color="#ffffff" preserveAspectRatio="xMidYMid meet" height="623" width="1000" xmlns="http://www.w3.org/2000/svg" xmlns:xlink="http://www.w3.org/1999/xlink"><g id="tight-bounds" transform="matrix(1,0,0,1,0.2400000000000091,-0.09999999999999432)"><svg viewBox="0 0 395.52 247.2" height="247.2" width="395.52"><g><svg></svg></g><g><svg viewBox="0 0 395.52 247.2" height="247.2" width="395.52"><mask id="8d7c5e97-07a4-4e0c-967d-e4ebd2bc4101"><rect width="640" height="400" fill="white"></rect><g transform="matrix(1,0,0,1,128.43070169659035,37.08)"><svg viewBox="0 0 138.6585966068193 173.04" height="173.04" width="138.6585966068193"><g><svg viewBox="0 0 138.6585966068193 173.04" height="173.04" width="138.6585966068193"><g><svg viewBox="0 0 138.6585966068193 173.04" height="173.04" width="138.6585966068193"><g><svg viewBox="0 0 138.6585966068193 173.04" height="173.04" width="138.6585966068193"><g id="SvgjsG1246"><svg viewBox="0 0 138.6585966068193 173.04" height="173.04" width="138.6585966068193" id="SvgjsSvg1245"><g><svg viewBox="0 0 138.6585966068193 173.04" height="173.04" width="138.6585966068193"><g transform="matrix(1,0,0,1,0,0)"><svg width="138.6585966068193" viewBox="-1.7300000190734863 -44.43000030517578 39.0099983215332 48.43000030517578" height="173.04" data-palette-color="#000000"><path d="M11.06-40.43L11.06 0 9.3 0 9.3-40.43 11.06-40.43ZM7.54-40.43L7.54 0 5.79 0 5.79-40.43 7.54-40.43ZM4.03-40.43L4.03 0 2.27 0 2.27-40.43 4.03-40.43ZM14.58-15.82L14.58-8.79 33.28-8.79 33.28-7.03 14.58-7.03 14.58-5.27 33.28-5.27 33.28-3.52 14.58-3.52 14.58-1.76 33.28-1.76 33.28 0 12.82 0 12.82-40.43 33.28-40.43 33.28-38.67 14.58-38.67 14.58-36.91 33.28-36.91 33.28-35.16 14.58-35.16 14.58-33.4 33.28-33.4 33.28-31.64 14.58-31.64 14.58-24.61 24.17-24.61 24.17-22.85 14.58-22.85 14.58-21.09 24.17-21.09 24.17-19.34 14.58-19.34 14.58-17.58 24.17-17.58 24.17-15.82 14.58-15.82Z" opacity="1" transform="matrix(1,0,0,1,0,0)" fill="black" class="wordmark-text-0" id="SvgjsPath1244" stroke-width="7" stroke="black" stroke-linejoin="round"></path></svg></g></svg></g></svg></g></svg></g></svg></g></svg></g></svg></g></mask><g transform="matrix(1,0,0,1,128.43070169659035,37.08)"><svg viewBox="0 0 138.6585966068193 173.04" height="173.04" width="138.6585966068193"><g><svg viewBox="0 0 138.6585966068193 173.04" height="173.04" width="138.6585966068193"><g><svg viewBox="0 0 138.6585966068193 173.04" height="173.04" width="138.6585966068193"><g><svg viewBox="0 0 138.6585966068193 173.04" height="173.04" width="138.6585966068193"><g id="textblocktransform"><svg viewBox="0 0 138.6585966068193 173.04" height="173.04" width="138.6585966068193" id="textblock"><g><svg viewBox="0 0 138.6585966068193 173.04" height="173.04" width="138.6585966068193"><g transform="matrix(1,0,0,1,0,0)"><svg width="138.6585966068193" viewBox="-1.7300000190734863 -44.43000030517578 39.0099983215332 48.43000030517578" height="173.04" data-palette-color="#000000"><path d="M11.06-40.43L11.06 0 9.3 0 9.3-40.43 11.06-40.43ZM7.54-40.43L7.54 0 5.79 0 5.79-40.43 7.54-40.43ZM4.03-40.43L4.03 0 2.27 0 2.27-40.43 4.03-40.43ZM14.58-15.82L14.58-8.79 33.28-8.79 33.28-7.03 14.58-7.03 14.58-5.27 33.28-5.27 33.28-3.52 14.58-3.52 14.58-1.76 33.28-1.76 33.28 0 12.82 0 12.82-40.43 33.28-40.43 33.28-38.67 14.58-38.67 14.58-36.91 33.28-36.91 33.28-35.16 14.58-35.16 14.58-33.4 33.28-33.4 33.28-31.64 14.58-31.64 14.58-24.61 24.17-24.61 24.17-22.85 14.58-22.85 14.58-21.09 24.17-21.09 24.17-19.34 14.58-19.34 14.58-17.58 24.17-17.58 24.17-15.82 14.58-15.82Z" opacity="1" transform="matrix(1,0,0,1,0,0)" fill="#000000" class="wordmark-text-0" data-fill-palette-color="primary" id="text-0"></path></svg></g></svg></g></svg></g></svg></g></svg></g></svg></g></svg></g><g mask="url(#8d7c5e97-07a4-4e0c-967d-e4ebd2bc4101)"><g transform="matrix(4.176729847047484, 0, 0, 4.176729847047484, 16.956658393050503, 0.9999999999999858)"><svg xmlns="http://www.w3.org/2000/svg" xmlns:xlink="http://www.w3.org/1999/xlink" version="1.1" x="0" y="0" viewBox="6.711620807647705 20.6473388671875 86.57650756835938 58.706214904785156" enable-background="new 0 0 100 100" xml:space="preserve" height="58.706214904785156" width="86.57650756835938" class="icon-none" data-fill-palette-color="accent" id="none"><g fill="#000000" data-fill-palette-color="accent"><path d="M81.635 21.616c1.607 0.392 1.129 5.91 5.951 5.188-0.741-3.27-3.002-4.899-5.193-5.282-1.061-0.237-1.421-0.168-1.081 0.186C81.581 21.865 81.692 21.833 81.635 21.616zM85.522 25.675c0.873-0.111 1.367 0.174 1.497 0.856-1.942-0.067-3.26-1.257-4.028-3.57C83.962 24.872 84.798 25.778 85.522 25.675z" fill="#000000" data-fill-palette-color="accent"></path><path d="M91.112 45.52c-3.894-1.921-6.488 2.054-7.279 4.547 2.522 0.276 5.402-0.889 6.629-4.289 0.199-0.117 0.4 0.011 0.569 0.176-0.475 0.086-0.218 0.608 0.157 0.53C91.483 46.422 91.874 45.896 91.112 45.52zM88.5 46.41c-1.69-0.093-2.93 1.518-4.05 2.993 2.246-3.885 4.444-3.743 4.931-3.218C89.875 46.719 88.608 47.447 88.5 46.41zM90.041 46.035c-0.072 0.077-0.215 0.086-0.304 0.01-0.089-0.075-0.106-0.202-0.031-0.282 0.075-0.08 0.206-0.077 0.298-0.005C90.095 45.831 90.113 45.957 90.041 46.035z" fill="#000000" data-fill-palette-color="accent"></path><path d="M83.652 49.317c1.753-3.241 0.68-5.995-1.215-7.655-0.871-0.87-1.284-1.037-1.231-0.514 0.151 0.303 0.288 0.339 0.401 0.122C82.902 42.593 78.09 47.045 83.652 49.317zM81.893 43.275c-0.501 2.227-0.349 3.515 0.482 3.862 0.993 0.419 1.291 0.955 0.89 1.617C81.309 47.547 80.856 45.733 81.893 43.275z" fill="#000000" data-fill-palette-color="accent"></path><path d="M88.396 51.218c-3.676-2.146-6.724 1.518-7.776 3.896 2.507 0.461 5.506-0.463 7.095-3.688 0.219-0.099 0.408 0.04 0.547 0.211-0.478 0.051-0.28 0.569 0.111 0.52C88.665 52.122 89.115 51.638 88.396 51.218zM85.688 51.9c-1.671-0.219-3.096 1.255-4.38 2.616 2.68-3.622 4.859-3.322 5.289-2.77C87.029 52.299 85.688 52.916 85.688 51.9zM87.276 51.645c-0.081 0.07-0.218 0.067-0.302-0.01-0.084-0.077-0.089-0.197-0.006-0.27 0.084-0.073 0.216-0.068 0.302 0.01C87.356 51.453 87.356 51.575 87.276 51.645z" fill="#000000" data-fill-palette-color="accent"></path><path d="M72.927 55.585c-0.345-1.197-0.651-1.554-0.918-1.068-0.038 0.341 0.066 0.447 0.325 0.307 0.483 1.82-7.008 3.447-2.83 8.245C73.188 60.979 73.803 57.995 72.927 55.585zM71.395 56.73c-1.86 1.763-2.478 3-1.858 3.72 0.734 0.867 0.709 1.507-0.077 1.918C68.236 60.302 68.874 58.431 71.395 56.73z" fill="#000000" data-fill-palette-color="accent"></path><path d="M86.221 43.959c1.061-3.561-0.514-6.233-2.673-7.647-1.018-0.751-1.443-0.861-1.289-0.335 0.206 0.298 0.338 0.319 0.407 0.072C84.177 37.205 80.388 42.49 86.221 43.959zM83.338 38.053c-0.056 2.367 0.346 3.65 1.217 3.88 1.039 0.272 1.443 0.773 1.188 1.512C83.6 42.511 82.818 40.727 83.338 38.053z" fill="#000000" data-fill-palette-color="accent"></path><path d="M92.738 38.994c-4.182-1.408-5.916 3.049-6.191 5.704 2.512-0.097 5.093-1.69 5.606-5.342 0.176-0.149 0.399-0.045 0.595 0.099-0.446 0.157-0.088 0.653 0.266 0.518C93.292 39.867 93.559 39.271 92.738 38.994zM90.368 40.282c-1.656 0.148-2.546 1.977-3.348 3.654 1.411-4.303 3.583-4.484 4.168-4.012C91.774 40.397 90.69 41.326 90.368 40.282zM91.799 39.674c-0.055 0.088-0.182 0.111-0.286 0.049-0.105-0.062-0.15-0.198-0.095-0.286 0.055-0.088 0.187-0.106 0.293-0.042C91.817 39.458 91.854 39.586 91.799 39.674z" fill="#000000" data-fill-palette-color="accent"></path><path d="M62.895 67.332c-4.098 0.343-11.233 5.569-11.686 10.811 0.098 0.276 0.239 0.521 0.429 0.722 0.194 0.204 0.447 0.353 0.763 0.429 0.427 0.103 0.983 0.078 1.701-0.119-0.779-3.758 3.711-9.734 9.162-11.077 0.237-0.059 0.531-0.036 0.851 0.013 2.136 1.073 5.053 1.244 8.02-0.493 0.27 0.025 0.363 0.242 0.397 0.472-0.5-0.202-0.635 0.368-0.227 0.522 0.317 0.12 1.051-0.088 0.618-0.829C70.697 63.972 65.43 65.698 62.895 67.332zM69.851 67.007c-1.481-1.061-3.798-0.455-5.909 0.129 4.895-1.914 6.829-0.516 6.899 0.198C70.911 68.052 69.217 67.921 69.851 67.007zM71.561 67.582c-0.126 0.023-0.253-0.043-0.281-0.157-0.029-0.115 0.038-0.224 0.163-0.249 0.125-0.024 0.256 0.051 0.288 0.163C71.762 67.451 71.687 67.559 71.561 67.582z" fill="#000000" data-fill-palette-color="accent"></path><path d="M67.686 59.58c-0.191-1.223-0.445-1.609-0.783-1.155-0.082 0.335 0.017 0.447 0.284 0.336 0.25 1.84-7.456 2.652-3.912 7.823C67.23 64.919 68.236 62.047 67.686 59.58zM65.996 60.548c-2.085 1.536-2.87 2.687-2.347 3.462 0.622 0.931 0.508 1.556-0.329 1.876C62.357 63.728 63.25 61.946 65.996 60.548z" fill="#000000" data-fill-palette-color="accent"></path><path d="M80.512 54.365c2.111-3.025 1.355-5.79-0.373-7.551-0.773-0.914-1.177-1.116-1.179-0.599 0.118 0.306 0.246 0.356 0.385 0.152C80.506 47.755 75.141 51.682 80.512 54.365zM79.453 52.13c0.952 0.48 1.195 1.033 0.731 1.648-1.858-1.339-2.113-3.149-0.782-5.45C78.636 50.458 78.655 51.712 79.453 52.13z" fill="#000000" data-fill-palette-color="accent"></path><path d="M87.619 38.595c2.041-0.185 4.042-1.642 4.2-4.767 0.129-0.125 0.314-0.046 0.492 0.073-0.355 0.151-0.032 0.557 0.25 0.427 0.217-0.1 0.403-0.61-0.297-0.812C88.758 32.504 87.649 36.336 87.619 38.595zM90.425 34.701c-1.349 0.197-1.95 1.78-2.484 3.238 0.854-3.706 2.616-3.952 3.125-3.582C91.587 34.737 90.756 35.566 90.425 34.701zM91.55 34.124c-0.039 0.081-0.142 0.102-0.234 0.052-0.092-0.05-0.13-0.146-0.091-0.227 0.039-0.08 0.143-0.113 0.233-0.063C91.548 33.934 91.588 34.043 91.55 34.124z" fill="#000000" data-fill-palette-color="accent"></path><path d="M89.95 21.127c0.067-0.182 0.272-0.172 0.475-0.098-0.26 0.26 0.195 0.564 0.4 0.343 0.156-0.168 0.113-0.76-0.599-0.723-3.634 0.19-3.014 4.378-2.095 6.662C89.905 26.452 91.106 24.31 89.95 21.127zM89.633 21.302c0.104 0.018 0.198 0.104 0.193 0.198-0.006 0.094-0.09 0.155-0.189 0.137-0.099-0.018-0.178-0.112-0.178-0.206C89.459 21.336 89.528 21.283 89.633 21.302zM89.493 21.891c0.612 0.197 0.21 1.329-0.441 0.559-1.154 0.65-1.029 2.442-0.899 4.073C87.364 22.537 88.865 21.69 89.493 21.891z" fill="#000000" data-fill-palette-color="accent"></path><path d="M84.56 31.646c-0.894-0.583-1.255-0.646-1.09-0.219 0.198 0.224 0.302 0.242 0.34 0.034 1.339 0.899-1.38 5.546 3.487 6.522C87.905 34.925 86.435 32.735 84.56 31.646zM86.86 37.572c-1.816-0.704-2.593-2.174-2.348-4.458 0.12 1.998 0.545 3.069 1.274 3.225C86.656 36.525 87.016 36.941 86.86 37.572z" fill="#000000" data-fill-palette-color="accent"></path><path d="M75.806 59.123c2.839-2.793 2.597-5.752 1.145-7.847-0.637-1.066-1.018-1.335-1.135-0.813 0.059 0.341 0.186 0.412 0.38 0.225C77.132 52.302 70.672 55.475 75.806 59.123zM75.135 56.635c0.911 0.653 1.058 1.262 0.447 1.82-1.695-1.676-1.6-3.6 0.267-5.754C74.607 54.773 74.37 56.082 75.135 56.635z" fill="#000000" data-fill-palette-color="accent"></path><path d="M83.983 26.394c0 0 0 0-0.003-0.003-1.002-0.415-1.36-0.432-1.113-0.02 0.242 0.198 0.35 0.187 0.34-0.022 1.494 0.665-0.191 5.833 4.723 6.046C87.918 29.149 86.041 27.164 83.983 26.394zM84.235 27.893c0.546 1.988 1.166 3.016 1.905 3.049 0.881 0.063 1.31 0.42 1.288 1.095C85.529 31.612 84.482 30.238 84.235 27.893z" fill="#000000" data-fill-palette-color="accent"></path><path d="M88.361 32.976c1.949-0.511 3.592-2.317 3.128-5.556 0.099-0.153 0.297-0.105 0.481-0.004-0.306 0.207 0.081 0.571 0.328 0.398 0.199-0.139 0.274-0.699-0.437-0.795C88.254 26.529 87.941 30.638 88.361 32.976zM91.149 27.53c0.098 0.034 0.162 0.141 0.14 0.227-0.022 0.085-0.125 0.134-0.222 0.096-0.097-0.039-0.154-0.134-0.133-0.221C90.953 27.545 91.05 27.496 91.149 27.53zM90.862 28.075c0.573 0.31-0.066 1.298-0.561 0.45-1.258 0.411-1.53 2.14-1.749 3.708C88.641 28.294 90.301 27.772 90.862 28.075z" fill="#000000" data-fill-palette-color="accent"></path><path d="M75.77 59.919c2.553 0.878 5.911 0.403 8.236-2.66 0.254-0.066 0.418 0.105 0.538 0.302-0.522-0.023-0.418 0.545 0.003 0.555 0.326 0.008 0.893-0.414 0.219-0.96C81.326 54.365 77.362 57.614 75.77 59.919zM81.769 57.419c-1.727-0.501-3.527 0.786-5.156 1.986 3.554-3.3 5.805-2.636 6.147-1.999C83.103 58.044 81.558 58.464 81.769 57.419zM83.495 57.412c-0.103 0.061-0.243 0.027-0.315-0.066-0.072-0.093-0.054-0.215 0.049-0.276 0.102-0.061 0.246-0.036 0.317 0.057C83.618 57.22 83.598 57.351 83.495 57.412z" fill="#000000" data-fill-palette-color="accent"></path><path d="M69.236 63.852c2.336 1.465 5.892 1.777 9.145-0.705 0.27-0.008 0.391 0.202 0.454 0.425-0.521-0.143-0.574 0.438-0.149 0.549 0.322 0.084 1.021-0.199 0.495-0.897C76.492 59.657 71.517 61.953 69.236 63.852zM76.052 62.781c-1.604-0.897-3.807-0.044-5.804 0.755 4.563-2.427 6.657-1.245 6.824-0.534C77.237 63.709 75.544 63.766 76.052 62.781zM77.817 63.174c-0.122 0.038-0.258-0.025-0.304-0.133-0.047-0.109 0.017-0.227 0.135-0.264 0.118-0.036 0.259 0.02 0.304 0.133C77.997 63.024 77.939 63.136 77.817 63.174z" fill="#000000" data-fill-palette-color="accent"></path><path d="M18.365 21.616c-0.057 0.218 0.054 0.249 0.323 0.092 0.34-0.354-0.02-0.423-1.081-0.186-2.191 0.383-4.452 2.012-5.193 5.282C17.236 27.525 16.759 22.008 18.365 21.616zM14.478 25.675c0.724 0.103 1.561-0.803 2.531-2.714-0.768 2.313-2.087 3.502-4.028 3.57C13.111 25.848 13.605 25.564 14.478 25.675z" fill="#000000" data-fill-palette-color="accent"></path><path d="M16.167 50.067c-0.791-2.493-3.384-6.469-7.279-4.547-0.762 0.376-0.371 0.902-0.076 0.964 0.375 0.079 0.633-0.444 0.157-0.53 0.169-0.165 0.37-0.293 0.569-0.176C10.765 49.178 13.645 50.343 16.167 50.067zM10.263 46.045c-0.089 0.075-0.232 0.067-0.304-0.01-0.072-0.077-0.055-0.204 0.037-0.276 0.092-0.072 0.223-0.076 0.298 0.005C10.37 45.844 10.352 45.97 10.263 46.045zM10.62 46.185c0.486-0.525 2.685-0.667 4.931 3.218-1.12-1.476-2.36-3.086-4.05-2.993C11.392 47.447 10.125 46.719 10.62 46.185z" fill="#000000" data-fill-palette-color="accent"></path><path d="M18.392 41.271c0.113 0.217 0.25 0.181 0.401-0.122 0.053-0.523-0.36-0.357-1.231 0.514-1.895 1.659-2.967 4.414-1.215 7.655C21.91 47.045 17.098 42.593 18.392 41.271zM16.735 48.754c-0.401-0.662-0.103-1.198 0.89-1.617 0.83-0.347 0.983-1.635 0.482-3.862C19.144 45.733 18.691 47.547 16.735 48.754z" fill="#000000" data-fill-palette-color="accent"></path><path d="M19.38 55.114c-1.051-2.378-4.1-6.042-7.776-3.896-0.719 0.42-0.269 0.904 0.023 0.94 0.39 0.049 0.588-0.469 0.111-0.52 0.139-0.171 0.328-0.31 0.547-0.211C13.874 54.651 16.874 55.575 19.38 55.114zM13.027 51.635c-0.084 0.077-0.222 0.08-0.302 0.01-0.081-0.07-0.08-0.192 0.006-0.27 0.086-0.078 0.219-0.083 0.302-0.01C13.116 51.438 13.111 51.558 13.027 51.635zM14.312 51.9c0 1.016-1.341 0.399-0.909-0.154 0.43-0.552 2.609-0.852 5.289 2.77C17.409 53.155 15.984 51.681 14.312 51.9z" fill="#000000" data-fill-palette-color="accent"></path><path d="M30.496 63.069c4.177-4.798-3.314-6.424-2.83-8.245 0.259 0.14 0.363 0.034 0.325-0.307-0.266-0.486-0.573-0.13-0.918 1.068C26.197 57.995 26.812 60.979 30.496 63.069zM30.539 62.367c-0.786-0.411-0.81-1.051-0.077-1.918 0.621-0.72 0.002-1.957-1.858-3.72C31.126 58.431 31.764 60.302 30.539 62.367z" fill="#000000" data-fill-palette-color="accent"></path><path d="M17.334 36.05c0.069 0.246 0.201 0.225 0.407-0.072 0.154-0.526-0.271-0.416-1.289 0.335-2.159 1.414-3.734 4.085-2.673 7.647C19.612 42.49 15.823 37.205 17.334 36.05zM15.446 41.933c0.871-0.23 1.273-1.513 1.217-3.88 0.52 2.674-0.262 4.458-2.404 5.392C14.002 42.706 14.407 42.205 15.446 41.933z" fill="#000000" data-fill-palette-color="accent"></path><path d="M13.453 44.697c-0.275-2.654-2.009-7.112-6.191-5.704-0.822 0.277-0.554 0.873-0.275 0.979 0.354 0.135 0.712-0.361 0.266-0.518 0.195-0.145 0.419-0.249 0.595-0.099C8.36 43.008 10.941 44.6 13.453 44.697zM8.487 39.723c-0.104 0.062-0.231 0.039-0.286-0.049-0.055-0.088-0.017-0.216 0.089-0.279 0.106-0.064 0.237-0.045 0.293 0.042C8.637 39.525 8.591 39.66 8.487 39.723zM8.812 39.924c0.585-0.473 2.757-0.291 4.168 4.012-0.803-1.677-1.692-3.506-3.348-3.654C9.31 41.326 8.226 40.397 8.812 39.924z" fill="#000000" data-fill-palette-color="accent"></path><path d="M37.105 67.332c-2.535-1.634-7.802-3.359-10.026 0.45-0.432 0.741 0.302 0.948 0.618 0.829 0.408-0.154 0.273-0.724-0.227-0.522 0.033-0.229 0.127-0.447 0.397-0.472 2.967 1.737 5.884 1.566 8.02 0.493 0.32-0.048 0.614-0.071 0.851-0.013 5.45 1.344 9.941 7.32 9.162 11.077 0.718 0.197 1.274 0.222 1.701 0.119 0.316-0.076 0.569-0.225 0.763-0.429 0.19-0.201 0.331-0.445 0.429-0.722C48.338 72.901 41.203 67.675 37.105 67.332zM28.439 67.582c-0.126-0.023-0.201-0.131-0.17-0.243 0.032-0.112 0.163-0.187 0.288-0.163 0.125 0.024 0.192 0.134 0.163 0.249C28.692 67.539 28.565 67.605 28.439 67.582zM30.149 67.007c0.634 0.914-1.061 1.044-0.99 0.327 0.07-0.714 2.004-2.112 6.899-0.198C33.947 66.553 31.63 65.946 30.149 67.007z" fill="#000000" data-fill-palette-color="accent"></path><path d="M36.725 66.584c3.544-5.171-4.162-5.983-3.912-7.823 0.267 0.111 0.366-0.001 0.284-0.336-0.338-0.454-0.592-0.068-0.783 1.155C31.764 62.047 32.77 64.919 36.725 66.584zM36.68 65.885c-0.838-0.319-0.951-0.945-0.329-1.876 0.523-0.775-0.262-1.926-2.347-3.462C36.75 61.946 37.643 63.728 36.68 65.885z" fill="#000000" data-fill-palette-color="accent"></path><path d="M19.488 54.365c5.371-2.682 0.006-6.61 1.167-7.998 0.139 0.205 0.267 0.154 0.385-0.152-0.002-0.517-0.405-0.315-1.179 0.599C18.133 48.575 17.377 51.339 19.488 54.365zM20.547 52.13c0.798-0.418 0.817-1.672 0.051-3.802 1.331 2.3 1.076 4.111-0.782 5.45C19.351 53.164 19.595 52.61 20.547 52.13z" fill="#000000" data-fill-palette-color="accent"></path><path d="M7.438 34.328c0.283 0.13 0.606-0.276 0.25-0.427 0.178-0.118 0.363-0.198 0.492-0.073 0.158 3.125 2.16 4.582 4.2 4.767-0.03-2.259-1.139-6.091-4.646-5.079C7.035 33.718 7.221 34.228 7.438 34.328zM12.059 37.939c-0.534-1.458-1.135-3.041-2.484-3.238-0.331 0.865-1.163 0.036-0.641-0.344C9.443 33.986 11.205 34.232 12.059 37.939zM8.542 33.886c0.09-0.049 0.195-0.017 0.233 0.063 0.038 0.081 0 0.176-0.091 0.227-0.092 0.051-0.195 0.029-0.234-0.052C8.412 34.043 8.452 33.934 8.542 33.886z" fill="#000000" data-fill-palette-color="accent"></path><path d="M9.575 21.029c0.203-0.075 0.407-0.084 0.475 0.098-1.155 3.183 0.046 5.325 1.819 6.184 0.919-2.284 1.539-6.472-2.095-6.662-0.712-0.037-0.755 0.555-0.599 0.723C9.38 21.593 9.835 21.289 9.575 21.029zM11.848 26.524c0.13-1.631 0.255-3.424-0.899-4.073-0.651 0.77-1.053-0.362-0.441-0.559C11.135 21.69 12.636 22.537 11.848 26.524zM10.367 21.302c0.105-0.018 0.175 0.035 0.174 0.128 0 0.094-0.079 0.188-0.178 0.206-0.099 0.018-0.183-0.043-0.189-0.137C10.168 21.405 10.262 21.319 10.367 21.302z" fill="#000000" data-fill-palette-color="accent"></path><path d="M16.189 31.46c0.038 0.208 0.143 0.19 0.34-0.034 0.166-0.427-0.195-0.363-1.09 0.219-1.875 1.09-3.345 3.279-2.738 6.337C17.57 37.006 14.851 32.359 16.189 31.46zM14.215 36.34c0.729-0.156 1.154-1.227 1.274-3.225 0.244 2.284-0.532 3.754-2.348 4.458C12.984 36.941 13.344 36.525 14.215 36.34z" fill="#000000" data-fill-palette-color="accent"></path><path d="M23.804 50.688c0.194 0.187 0.321 0.116 0.38-0.225-0.118-0.522-0.498-0.253-1.135 0.813-1.452 2.095-1.694 5.054 1.145 7.847C29.328 55.475 22.868 52.302 23.804 50.688zM24.151 52.702c1.867 2.154 1.962 4.078 0.267 5.754-0.612-0.558-0.465-1.167 0.447-1.82C25.63 56.082 25.393 54.773 24.151 52.702z" fill="#000000" data-fill-palette-color="accent"></path><path d="M16.793 26.349c-0.011 0.209 0.098 0.22 0.34 0.022 0.247-0.412-0.111-0.396-1.113 0.02-0.003 0.003-0.003 0.003-0.003 0.003-2.058 0.77-3.935 2.755-3.946 6.001C16.985 32.182 15.3 27.014 16.793 26.349zM12.572 32.037c-0.022-0.675 0.407-1.033 1.288-1.095 0.739-0.033 1.359-1.061 1.905-3.049C15.518 30.238 14.471 31.612 12.572 32.037z" fill="#000000" data-fill-palette-color="accent"></path><path d="M8.03 27.416c0.183-0.1 0.382-0.149 0.481 0.004-0.465 3.239 1.179 5.044 3.128 5.556 0.42-2.338 0.107-6.447-3.5-5.957-0.711 0.097-0.635 0.656-0.437 0.795C7.949 27.988 8.336 27.623 8.03 27.416zM11.448 32.233c-0.219-1.568-0.491-3.297-1.749-3.708-0.495 0.848-1.133-0.14-0.561-0.45C9.699 27.772 11.359 28.294 11.448 32.233zM8.851 27.53c0.098-0.034 0.196 0.015 0.216 0.102 0.02 0.087-0.037 0.182-0.133 0.221-0.097 0.038-0.2-0.011-0.222-0.096C8.69 27.672 8.753 27.565 8.851 27.53z" fill="#000000" data-fill-palette-color="accent"></path><path d="M24.23 59.919c-1.592-2.305-5.556-5.554-8.996-2.762-0.673 0.546-0.107 0.968 0.219 0.96 0.421-0.01 0.526-0.578 0.003-0.555 0.12-0.197 0.283-0.368 0.538-0.302C18.319 60.321 21.677 60.797 24.23 59.919zM16.82 57.346c-0.072 0.093-0.212 0.127-0.315 0.066-0.103-0.061-0.123-0.192-0.051-0.285 0.072-0.093 0.215-0.119 0.317-0.057C16.874 57.132 16.892 57.253 16.82 57.346zM17.24 57.406c0.342-0.637 2.593-1.301 6.147 1.999-1.629-1.2-3.429-2.487-5.156-1.986C18.442 58.464 16.897 58.044 17.24 57.406z" fill="#000000" data-fill-palette-color="accent"></path><path d="M20.819 63.224c-0.526 0.698 0.173 0.981 0.495 0.897 0.425-0.11 0.372-0.692-0.149-0.549 0.063-0.223 0.184-0.433 0.454-0.425 3.253 2.482 6.809 2.17 9.145 0.705C28.483 61.953 23.508 59.657 20.819 63.224zM22.183 63.174c-0.122-0.038-0.18-0.15-0.135-0.264 0.046-0.113 0.186-0.17 0.304-0.133 0.118 0.036 0.182 0.155 0.135 0.264C22.441 63.149 22.306 63.212 22.183 63.174zM23.948 62.781c0.507 0.985-1.185 0.928-1.02 0.222 0.167-0.711 2.261-1.893 6.824 0.534C27.755 62.738 25.552 61.884 23.948 62.781z" fill="#000000" data-fill-palette-color="accent"></path></g></svg></g></g></svg></g><defs></defs></svg><rect width="395.52" height="247.2" fill="none" stroke="none" visibility="hidden"></rect></g></svg></g></svg>